<svg width="146" height="36" viewBox="0 0 146 36" fill="none" xmlns="http://www.w3.org/2000/svg">
<path d="M25.4432 0.9312C25.5584 0.5856 25.7792 0.4128 26.1056 0.4128C26.4512 0.4128 26.7296 0.5568 26.9408 0.844801C27.1712 1.1136 27.2864 1.4688 27.2864 1.9104C27.2864 2.352 27.1616 2.7744 26.912 3.1776C26.6816 3.5616 26.3936 3.888 26.048 4.1568C25.7216 4.4256 25.2608 4.6848 24.6656 4.9344C23.84 5.2992 22.6112 5.712 20.9792 6.1728C20.5184 7.8624 20.1728 9.9072 19.9424 12.3072C19.7312 14.688 19.5104 16.6752 19.28 18.2688C19.0496 19.8624 18.7904 21.3504 18.5024 22.7328C18.2144 24.096 17.792 25.4304 17.2352 26.736C16.6784 28.0608 16.0256 29.184 15.2768 30.1056C14.528 31.0272 13.5584 31.7664 12.368 32.3232C11.1968 32.88 9.8528 33.1584 8.336 33.1584C5.3216 33.1584 3.1712 32.0928 1.8848 29.9616C1.2128 28.848 0.8768 27.6288 0.8768 26.304C0.8768 25.6704 0.9536 25.0176 1.1072 24.3456C1.568 22.3872 2.528 20.9568 3.9872 20.0544C4.8512 19.5168 5.792 19.248 6.8096 19.248C8.8832 19.248 10.304 20.064 11.072 21.696C11.3792 22.3872 11.5328 23.0688 11.5328 23.7408C11.5328 24.3936 11.4272 25.0368 11.216 25.6704C10.6976 27.0912 9.8528 27.8016 8.6816 27.8016C8.3552 27.8016 8.0864 27.6192 7.8752 27.2544C8.6624 27.2544 9.2864 26.6976 9.7472 25.584C10.0352 24.8928 10.1792 24.24 10.1792 23.6256C10.1792 23.0112 10.0928 22.4448 9.92 21.9264C9.4208 20.5056 8.3936 19.7952 6.8384 19.7952C5.0144 19.7952 3.584 20.64 2.5472 22.3296C1.8368 23.5008 1.4816 24.7488 1.4816 26.0736C1.4816 26.5344 1.5296 26.9952 1.6256 27.456C1.9712 29.4912 2.9984 30.9216 4.7072 31.7472C5.6096 32.1888 6.752 32.4096 8.1344 32.4096C9.5168 32.4096 10.7936 31.9584 11.9648 31.056C13.136 30.1536 14.0384 29.0112 14.672 27.6288C15.3248 26.2656 15.8912 24.6144 16.3712 22.6752C16.8704 20.7168 17.2352 18.8544 17.4656 17.088C18.1376 12.2688 18.8 8.7744 19.4528 6.6048C15.9392 7.6224 13.5488 8.7552 12.2816 10.0032C11.7632 10.5408 11.3216 11.2224 10.9568 12.048C10.592 12.8544 10.4096 13.7568 10.4096 14.7552C10.4096 15.7536 10.6592 16.5984 11.1584 17.2896C11.6576 17.9808 12.2912 18.3264 13.0592 18.3264C13.0592 18.48 12.9824 18.624 12.8288 18.7584C12.6752 18.8928 12.4832 18.96 12.2528 18.96C11.312 18.96 10.5344 18.5568 9.92 17.7504C9.3248 16.944 9.0272 16.0512 9.0272 15.072C9.0272 14.0736 9.1424 13.2288 9.3728 12.5376C9.6224 11.8464 9.92 11.2512 10.2656 10.752C10.6304 10.2336 11.1104 9.744 11.7056 9.2832C12.32 8.8224 12.896 8.4384 13.4336 8.1312C13.9712 7.824 14.6528 7.5072 15.4784 7.1808C16.7072 6.72 18.1184 6.2592 19.712 5.7984C20.6144 3.2832 21.9104 2.0256 23.6 2.0256C23.7344 2.0256 23.8496 2.0736 23.9456 2.1696C24.0608 2.2464 24.1472 2.3616 24.2048 2.5152C22.88 2.5152 21.8912 3.456 21.2384 5.3376C22.928 4.8384 24.1952 4.3488 25.04 3.8688C25.904 3.3888 26.336 2.7744 26.336 2.0256C26.336 1.6992 26.2496 1.44 26.0768 1.248C25.904 1.0368 25.6928 0.9312 25.4432 0.9312ZM32.3946 23.3088C32.8938 23.3088 33.5946 22.6464 34.497 21.3216C35.3994 19.9968 36.177 18.672 36.8298 17.3472L37.809 15.36H38.5866C38.4714 15.5904 38.3178 15.9072 38.1258 16.3104C37.953 16.6944 37.5978 17.3952 37.0602 18.4128C36.5226 19.4112 36.0042 20.2944 35.505 21.0624C35.025 21.8304 34.4778 22.5312 33.8634 23.1648C33.2682 23.7792 32.7018 24.0864 32.1642 24.0864C31.6266 24.0864 31.185 23.9232 30.8394 23.5968C30.417 23.1744 30.2058 22.4352 30.2058 21.3792C30.2058 20.3232 30.3882 18.9312 30.753 17.2032H30.5514C28.3434 21.7344 26.5098 24 25.0506 24C23.7642 24 23.121 23.1648 23.121 21.4944C23.121 20.2848 23.6394 17.8752 24.6762 14.2656C24.9066 13.44 25.0794 12.8256 25.1946 12.4224C25.3098 12 25.4922 11.7888 25.7418 11.7888C26.0874 11.7888 26.337 12.0384 26.4906 12.5376C26.5674 12.7488 26.6058 13.0176 26.6058 13.344C26.6058 13.6512 26.5578 13.9968 26.4618 14.3808C26.3658 14.7456 26.1642 15.456 25.857 16.512C25.0314 19.3536 24.6186 21.264 24.6186 22.2432C24.6186 22.8768 24.8106 23.1936 25.1946 23.1936C25.6746 23.1936 26.241 22.7616 26.8938 21.8976C27.585 20.9952 28.1514 20.1216 28.593 19.2768C29.0346 18.432 29.3898 17.7408 29.6586 17.2032C29.9274 16.6656 30.1962 16.1088 30.465 15.5328C30.7338 14.9376 30.945 14.448 31.0986 14.064C31.2714 13.68 31.4346 13.3152 31.5882 12.9696C31.7418 12.6048 31.8186 12.4128 31.8186 12.3936C31.9914 11.9904 32.1834 11.7888 32.3946 11.7888C32.7402 11.7888 32.9898 12.0384 33.1434 12.5376C33.2202 12.768 33.2586 13.0464 33.2586 13.3728C33.2586 13.6992 33.2202 14.0448 33.1434 14.4096C33.0666 14.7552 32.9418 15.2736 32.769 15.9648C32.5962 16.656 32.4618 17.2224 32.3658 17.664C32.2698 18.1056 32.1546 18.6432 32.0202 19.2768C31.8282 20.3328 31.7322 21.2736 31.7322 22.0992C31.7322 22.9056 31.953 23.3088 32.3946 23.3088ZM37.0178 11.4144C37.0178 11.2032 37.1522 11.0976 37.421 11.0976H38.9186C39.0146 10.7136 39.1394 10.2336 39.293 9.6576L39.6962 8.16C39.8114 7.7184 39.9074 7.3152 39.9842 6.9504C40.0802 6.5856 40.253 6.4032 40.5026 6.4032C40.829 6.4032 41.0594 6.6528 41.1938 7.152C41.2514 7.3632 41.2802 7.6224 41.2802 7.9296C41.2802 8.2368 41.2226 8.6304 41.1074 9.1104L40.5602 11.0976H42.3458C42.5186 11.0976 42.6338 11.1552 42.6914 11.2704C42.7682 11.3856 42.7682 11.5008 42.6914 11.616C42.6338 11.712 42.5186 11.76 42.3458 11.76H40.3874C39.197 16.2336 38.6018 19.4016 38.6018 21.264C38.6018 22.6272 38.909 23.3088 39.5234 23.3088C40.0226 23.3088 40.7234 22.6464 41.6258 21.3216C42.5282 19.9968 43.3058 18.672 43.9586 17.3472L44.9378 15.36H45.7154C45.6002 15.5904 45.4466 15.9072 45.2546 16.3104C45.0818 16.6944 44.7266 17.3952 44.189 18.4128C43.6514 19.4112 43.133 20.2944 42.6338 21.0624C42.1538 21.8304 41.6066 22.5312 40.9922 23.1648C40.397 23.7792 39.8402 24.0864 39.3218 24.0864C38.8034 24.0864 38.3522 23.9232 37.9682 23.5968C37.6034 23.2512 37.373 22.7712 37.277 22.1568C37.1618 21.5232 37.1042 20.88 37.1042 20.2272C37.1042 18.7104 37.6418 15.888 38.717 11.76H37.421C37.2674 11.76 37.1618 11.7216 37.1042 11.6448C37.0466 11.5488 37.0178 11.472 37.0178 11.4144ZM45.6458 19.7952C45.6458 22.1184 46.4714 23.28 48.1226 23.28C48.737 23.28 49.3802 23.0112 50.0522 22.4736C50.7434 21.9168 51.3674 21.2544 51.9242 20.4864C53.153 18.72 54.017 17.28 54.5162 16.1664L54.8906 15.36H55.6682C55.3418 16.128 54.8618 17.0784 54.2282 18.2112C53.5946 19.3248 52.9898 20.2656 52.4138 21.0336C51.8378 21.8016 51.1562 22.5024 50.369 23.136C49.5818 23.7504 48.833 24.0576 48.1226 24.0576C45.281 24.0576 43.8602 22.464 43.8602 19.2768C43.8602 17.7984 44.2922 16.32 45.1562 14.8416C46.3466 12.7872 47.8154 11.76 49.5626 11.76C50.7914 11.76 51.4058 12.432 51.4058 13.776C51.4058 14.7744 51.0218 15.8112 50.2538 16.8864C49.1786 18.3456 47.921 19.0848 46.481 19.104C46.2698 19.104 46.1354 19.008 46.0778 18.816L46.049 18.7008C47.0474 18.7008 47.9978 18.048 48.9002 16.7424C49.8218 15.4176 50.2826 14.3136 50.2826 13.4304C50.2826 12.8352 50.0522 12.5376 49.5914 12.5376C48.5738 12.5376 47.6234 13.4304 46.7402 15.216C46.0106 16.7328 45.6458 18.2592 45.6458 19.7952ZM67.037 23.2224C67.7666 23.2224 68.5634 22.2336 69.4274 20.256C70.3106 18.1632 70.7522 16.2528 70.7522 14.5248C70.7522 13.3344 70.445 12.7296 69.8306 12.7104C69.2354 12.7104 68.5538 13.1904 67.7858 14.1504C67.037 15.1104 66.3554 16.2432 65.741 17.5488C64.4162 20.4096 63.5906 22.5504 63.2642 23.9712C62.2466 28.5792 61.5458 31.44 61.1618 32.5536C60.4898 34.512 59.7218 35.4912 58.8578 35.4912C58.1858 35.4912 57.8498 35.0304 57.8498 34.1088C57.8498 33.5712 57.965 32.8608 58.1954 31.9776C58.7906 29.8464 59.7218 27.8016 60.989 25.8432L61.7666 24.7776C61.9394 23.9136 62.1698 22.6656 62.4578 21.0336C63.0338 17.7504 63.4466 15.5808 63.6962 14.5248C63.965 13.4496 64.2722 12.72 64.6178 12.336C64.9826 11.9328 65.2898 11.7312 65.5394 11.7312C66.0194 11.7312 66.1922 11.9232 66.0578 12.3072C65.5778 13.8816 65.0786 15.744 64.5602 17.8944H64.7618C66.6434 13.8048 68.3426 11.76 69.8594 11.76C71.0882 11.76 71.8562 12.5472 72.1634 14.1216C72.2594 14.6208 72.3074 15.1296 72.3074 15.648C72.3074 16.9152 72.0194 18.288 71.4434 19.7664C70.637 21.8784 69.5618 23.2128 68.2178 23.7696C67.8146 23.9424 67.4114 24.0288 67.0082 24.0288C66.0674 24.0288 65.5202 23.5104 65.3666 22.4736C65.3474 22.3008 65.3858 22.1664 65.4818 22.0704C65.5778 21.9744 65.693 21.9456 65.8274 21.984C65.9618 22.0224 66.0386 22.1184 66.0578 22.272C66.1538 22.9056 66.4802 23.2224 67.037 23.2224ZM58.7714 34.7136C59.5202 34.7136 60.4418 31.8144 61.5362 26.016C60.4034 27.7824 59.4914 29.7408 58.8002 31.8912C58.493 32.8512 58.3394 33.5616 58.3394 34.0224C58.3394 34.4832 58.4834 34.7136 58.7714 34.7136ZM74.7921 24C74.2545 24 73.9857 23.5872 73.9857 22.7616C73.9857 22.32 74.5233 19.104 75.5985 13.1136C75.6753 12.7104 75.8481 12.5088 76.1169 12.5088C76.4625 12.5088 76.7217 12.7584 76.8945 13.2576C76.9905 13.5264 77.0385 13.824 77.0385 14.1504C77.0385 14.4576 77.0001 14.7936 76.9233 15.1584L76.4625 17.52H76.6065C78.2577 13.68 79.7745 11.76 81.1569 11.76C81.9249 11.76 82.4337 12.1344 82.6833 12.8832C82.7793 13.1712 82.8273 13.5072 82.8273 13.8912C82.8273 14.256 82.7217 14.6592 82.5105 15.1008C82.1457 15.8496 81.5985 16.224 80.8689 16.224C80.7153 16.224 80.5905 16.1856 80.4945 16.1088C80.4177 16.032 80.3697 15.9264 80.3505 15.792C80.5041 15.792 80.7057 15.5136 80.9553 14.9568C81.2049 14.3808 81.3489 13.8528 81.3873 13.3728C81.4257 12.8928 81.2625 12.6144 80.8977 12.5376C80.2257 12.5376 79.4289 13.4112 78.5073 15.1584C77.5857 16.9056 76.8465 18.576 76.2897 20.1696C75.7329 21.7632 75.4065 22.8 75.3105 23.28C75.2145 23.76 75.0417 24 74.7921 24ZM85.139 20.1984C85.139 22.2144 85.6766 23.2224 86.7518 23.2224C87.4814 23.2224 88.163 22.7712 88.7966 21.8688C90.0062 20.1792 90.7454 17.952 91.0142 15.1872C90.3422 14.8992 89.8718 14.4288 89.603 13.776C89.4302 13.3728 89.3438 13.0368 89.3438 12.768C89.3438 12.48 89.3822 12.2304 89.459 12.0192C89.6318 11.5008 89.9486 11.2416 90.4094 11.2416C90.8702 11.2416 91.2158 11.5392 91.4462 12.1344C91.6958 12.7104 91.8206 13.4496 91.8206 14.352C91.8206 14.4096 91.8206 14.4768 91.8206 14.5536C92.051 14.6304 92.387 14.6688 92.8286 14.6688C93.2894 14.6688 93.6926 14.4864 94.0382 14.1216C94.3838 13.7568 94.5566 13.4208 94.5566 13.1136C94.5566 13.0368 94.6046 12.9888 94.7006 12.9696C94.7966 12.9312 94.883 12.9312 94.9598 12.9696C95.0558 13.008 95.1038 13.0656 95.1038 13.1424C95.1038 13.6992 94.8638 14.2272 94.3838 14.7264C93.923 15.2256 93.299 15.4752 92.5118 15.4752C92.3198 15.4752 92.0702 15.456 91.763 15.4176C91.6478 16.7232 91.3694 18.0192 90.9278 19.3056C90.5054 20.5728 89.9102 21.6768 89.1422 22.6176C88.3742 23.5392 87.5486 24 86.6654 24C84.995 24 83.9678 23.1072 83.5838 21.3216C83.4878 20.8032 83.4398 20.2752 83.4398 19.7376C83.4398 18.528 83.7182 17.232 84.275 15.8496C85.0046 14.0448 85.907 12.9216 86.9822 12.48C87.539 12.288 87.923 12.2592 88.1342 12.3936C88.3454 12.528 88.4798 12.6816 88.5374 12.8544C87.6542 12.8544 86.867 13.68 86.1758 15.3312C85.4846 16.9824 85.139 18.6048 85.139 20.1984ZM106.078 7.8432C105.522 9.8592 105.08 11.5392 104.754 12.8832C104.446 14.208 104.101 15.7536 103.717 17.52C103.352 19.2672 103.17 20.6688 103.17 21.7248C103.17 22.7808 103.41 23.3088 103.89 23.3088C104.408 23.3088 105.118 22.6464 106.021 21.3216C106.942 19.9968 107.73 18.672 108.382 17.3472L109.333 15.36H110.11C109.995 15.5904 109.842 15.9072 109.65 16.3104C109.477 16.6944 109.122 17.3952 108.584 18.4128C108.046 19.4112 107.528 20.2944 107.029 21.0624C106.549 21.8304 106.002 22.5312 105.387 23.1648C104.773 23.7792 104.245 24.0864 103.803 24.0864C102.421 24.0864 101.73 23.0688 101.73 21.0336C101.73 20.2848 101.835 19.3056 102.046 18.096H101.816C99.6849 22.0512 97.9569 24.0288 96.6321 24.0288C95.1153 24.0288 94.3569 22.8864 94.3569 20.6016C94.3569 19.2768 94.7025 17.8272 95.3937 16.2528C96.3537 14.1216 97.5729 12.7296 99.0513 12.0768C99.5697 11.8656 100.088 11.76 100.606 11.76C101.144 11.76 101.566 11.9136 101.874 12.2208C102.181 12.528 102.334 12.8736 102.334 13.2576C102.334 13.4304 102.238 13.5168 102.046 13.5168C101.874 13.4976 101.787 13.4016 101.787 13.2288C101.787 13.056 101.691 12.9024 101.499 12.768C101.326 12.6144 101.067 12.5376 100.722 12.5376C99.5121 12.5376 98.4177 13.6224 97.4385 15.792C96.5169 17.808 96.0561 19.7184 96.0561 21.5232C96.0561 22.6368 96.2961 23.1936 96.7761 23.1936C97.4289 23.1936 98.2449 22.4832 99.2241 21.0624C100.203 19.6416 101.058 18.1152 101.787 16.4832C102.536 14.8512 103.064 13.3632 103.371 12.0192C103.698 10.656 104.187 8.8032 104.84 6.4608C105.262 4.944 105.819 4.1856 106.51 4.1856C106.664 4.1856 106.779 4.2432 106.856 4.3584C106.933 4.4544 106.962 4.56 106.942 4.6752C106.923 4.7712 106.635 5.8272 106.078 7.8432ZM117.332 23.3088C117.831 23.3088 118.532 22.6464 119.434 21.3216C120.337 19.9968 121.114 18.672 121.767 17.3472L122.746 15.36H123.524C123.409 15.5904 123.255 15.9072 123.063 16.3104C122.89 16.6944 122.535 17.3952 121.998 18.4128C121.46 19.4112 120.942 20.2944 120.442 21.0624C119.962 21.8304 119.415 22.5312 118.801 23.1648C118.206 23.7792 117.639 24.0864 117.102 24.0864C116.564 24.0864 116.122 23.9232 115.777 23.5968C115.354 23.1744 115.143 22.4352 115.143 21.3792C115.143 20.3232 115.326 18.9312 115.69 17.2032H115.489C113.281 21.7344 111.447 24 109.988 24C108.702 24 108.058 23.1648 108.058 21.4944C108.058 20.2848 108.577 17.8752 109.614 14.2656C109.844 13.44 110.017 12.8256 110.132 12.4224C110.247 12 110.43 11.7888 110.679 11.7888C111.025 11.7888 111.274 12.0384 111.428 12.5376C111.505 12.7488 111.543 13.0176 111.543 13.344C111.543 13.6512 111.495 13.9968 111.399 14.3808C111.303 14.7456 111.102 15.456 110.794 16.512C109.969 19.3536 109.556 21.264 109.556 22.2432C109.556 22.8768 109.748 23.1936 110.132 23.1936C110.612 23.1936 111.178 22.7616 111.831 21.8976C112.522 20.9952 113.089 20.1216 113.53 19.2768C113.972 18.432 114.327 17.7408 114.596 17.2032C114.865 16.6656 115.134 16.1088 115.402 15.5328C115.671 14.9376 115.882 14.448 116.036 14.064C116.209 13.68 116.372 13.3152 116.526 12.9696C116.679 12.6048 116.756 12.4128 116.756 12.3936C116.929 11.9904 117.121 11.7888 117.332 11.7888C117.678 11.7888 117.927 12.0384 118.081 12.5376C118.158 12.768 118.196 13.0464 118.196 13.3728C118.196 13.6992 118.158 14.0448 118.081 14.4096C118.004 14.7552 117.879 15.2736 117.706 15.9648C117.534 16.656 117.399 17.2224 117.303 17.664C117.207 18.1056 117.092 18.6432 116.958 19.2768C116.766 20.3328 116.67 21.2736 116.67 22.0992C116.67 22.9056 116.89 23.3088 117.332 23.3088ZM123.453 19.9104C123.453 22.1568 124.231 23.28 125.786 23.28C126.4 23.28 127.043 23.0112 127.715 22.4736C128.407 21.9168 129.031 21.2544 129.587 20.4864C130.816 18.72 131.68 17.28 132.179 16.1664L132.554 15.36H133.331C133.005 16.128 132.525 17.0784 131.891 18.2112C131.258 19.3248 130.653 20.2656 130.077 21.0336C129.501 21.8016 128.819 22.5024 128.032 23.136C127.245 23.7504 126.496 24.0576 125.786 24.0576C123.789 24.0576 122.522 23.1456 121.984 21.3216C121.811 20.7456 121.725 20.0256 121.725 19.1616C121.725 18.2784 121.994 17.2032 122.531 15.936C123.319 14.0544 124.394 12.7872 125.757 12.1344C126.295 11.8848 126.823 11.76 127.341 11.76C127.879 11.76 128.301 11.904 128.608 12.192C128.973 12.5376 129.155 12.9408 129.155 13.4016C129.155 13.8432 129.107 14.256 129.011 14.64C128.915 15.024 128.714 15.3696 128.407 15.6768C128.119 15.9648 127.792 16.1088 127.427 16.1088C127.274 16.1088 127.159 16.0032 127.082 15.792C127.235 15.792 127.437 15.5232 127.687 14.9856C127.955 14.4288 128.09 13.8816 128.09 13.344C128.09 12.8064 127.859 12.5376 127.399 12.5376C126.4 12.5376 125.488 13.3728 124.663 15.0432C123.856 16.7136 123.453 18.336 123.453 19.9104ZM131.729 11.4144C131.729 11.2032 131.863 11.0976 132.132 11.0976H133.63C133.726 10.7136 133.85 10.2336 134.004 9.6576L134.407 8.16C134.522 7.7184 134.618 7.3152 134.695 6.9504C134.791 6.5856 134.964 6.4032 135.214 6.4032C135.54 6.4032 135.77 6.6528 135.905 7.152C135.962 7.3632 135.991 7.6224 135.991 7.9296C135.991 8.2368 135.934 8.6304 135.818 9.1104L135.271 11.0976H137.057C137.23 11.0976 137.345 11.1552 137.402 11.2704C137.479 11.3856 137.479 11.5008 137.402 11.616C137.345 11.712 137.23 11.76 137.057 11.76H135.098C133.908 16.2336 133.313 19.4016 133.313 21.264C133.313 22.6272 133.62 23.3088 134.234 23.3088C134.734 23.3088 135.434 22.6464 136.337 21.3216C137.239 19.9968 138.017 18.672 138.67 17.3472L139.649 15.36H140.426C140.311 15.5904 140.158 15.9072 139.966 16.3104C139.793 16.6944 139.438 17.3952 138.9 18.4128C138.362 19.4112 137.844 20.2944 137.345 21.0624C136.865 21.8304 136.318 22.5312 135.703 23.1648C135.108 23.7792 134.551 24.0864 134.033 24.0864C133.514 24.0864 133.063 23.9232 132.679 23.5968C132.314 23.2512 132.084 22.7712 131.988 22.1568C131.873 21.5232 131.815 20.88 131.815 20.2272C131.815 18.7104 132.353 15.888 133.428 11.76H132.132C131.978 11.76 131.873 11.7216 131.815 11.6448C131.758 11.5488 131.729 11.472 131.729 11.4144ZM143.179 8.6208H143.237C143.41 8.64 143.544 8.7168 143.64 8.8512C143.736 8.9856 143.784 9.1296 143.784 9.2832C143.784 9.4176 143.65 9.7152 143.381 10.176C143.131 10.6368 143.006 11.0112 143.006 11.2992C143.006 11.568 143.045 11.8272 143.122 12.0768C143.198 12.3072 143.438 12.8832 143.842 13.8048C144.725 15.8208 145.166 17.6256 145.166 19.2192C145.166 20.7936 144.734 22.0992 143.87 23.136C143.026 24.1728 142.008 24.6912 140.818 24.6912C139.646 24.6912 139.061 23.9808 139.061 22.56C139.061 21.12 139.57 19.584 140.587 17.952C141.182 17.0112 141.826 16.3008 142.517 15.8208C142.709 15.6864 142.834 15.7152 142.891 15.9072C142.968 16.0992 142.93 16.2528 142.776 16.368C141.662 17.1744 140.798 18.4512 140.184 20.1984C139.627 21.7728 139.57 22.8672 140.011 23.4816C140.165 23.712 140.386 23.8272 140.674 23.8272C141.518 23.8272 142.181 23.2608 142.661 22.128C143.141 20.9952 143.381 19.584 143.381 17.8944C143.381 16.4352 143.208 15.0816 142.862 13.8336C142.517 12.5856 142.325 11.8656 142.286 11.6736C141.71 12.768 141.086 13.9968 140.414 15.36H139.637C140.731 13.1904 141.576 11.5584 142.171 10.464C142.248 9.2352 142.584 8.6208 143.179 8.6208Z" fill="#038C00"/>
</svg>
